<svg width="180" height="100" viewBox="0 0 180 100" fill="none" xmlns="http://www.w3.org/2000/svg">
<g id="vb">
<g id="Logo">
<path id="Tilde" d="M136.052 54.284C134.735 54.284 133.569 54.0813 132.556 53.676C131.543 53.2707 130.605 52.7893 129.744 52.232C128.933 51.6747 128.097 51.1933 127.236 50.788C126.425 50.3827 125.513 50.18 124.5 50.18C123.335 50.18 122.296 50.4333 121.384 50.94C120.472 51.4467 119.585 52.384 118.724 53.752L115 52.08C115.557 50.9147 116.241 49.876 117.052 48.964C117.913 48.052 118.952 47.3427 120.168 46.836C121.384 46.2787 122.777 46 124.348 46C125.665 46 126.805 46.2027 127.768 46.608C128.731 47.0133 129.617 47.4947 130.428 48.052C131.239 48.6093 132.049 49.0907 132.86 49.496C133.721 49.9013 134.684 50.104 135.748 50.104C136.863 50.104 137.8 49.8507 138.56 49.344C139.32 48.8373 140.181 47.8747 141.144 46.456L144.64 48.584C143.779 50.0027 142.917 51.1427 142.056 52.004C141.195 52.8147 140.283 53.3973 139.32 53.752C138.408 54.1067 137.319 54.284 136.052 54.284Z" fill="#3A3461"/>
<path id="big" d="M10.6842 91V75.9607L72.178 49.5585L10.6842 23.1562V8.11699L89.7238 43.7099V55.4071L10.6842 91Z" fill="url(#paint0_linear_12_38)"/>
<g id="gradients">
<path id="Alex2" d="M90.2818 9.19318L90.0548 24.2307L28.1694 49.7017L89.2577 77.0292L89.0306 92.0667L10.5373 55.2847L10.7139 43.5889L90.2818 9.19318Z" fill="url(#paint1_linear_12_38)"/>
<path id="Alex1" d="M90.2818 9.19318L90.0548 24.2307L28.1694 49.7017L89.2577 77.0292L89.0306 92.0667L10.5373 55.2847L10.7139 43.5889L90.2818 9.19318Z" fill="#3A3461"/>
</g>
</g>
</g>
<defs>
<linearGradient id="paint0_linear_12_38" x1="50.204" y1="8.11699" x2="50.204" y2="91" gradientUnits="userSpaceOnUse">
<stop stop-color="#FF1A5E"/>
<stop offset="1" stop-color="#7593FF"/>
</linearGradient>
<linearGradient id="paint1_linear_12_38" x1="114.025" y1="167.544" x2="117.286" y2="-48.4316" gradientUnits="userSpaceOnUse">
<stop stop-color="#2A6A98"/>
<stop offset="0.0001" stop-color="#00FF94"/>
<stop offset="1" stop-color="#DB00FF" stop-opacity="0.81"/>
</linearGradient>
</defs>
</svg>
