									<svg
										version="1.1"
										id="Capa_1"
										xmlns="http://www.w3.org/2000/svg"
										xmlns:xlink="http://www.w3.org/1999/xlink"
										x="0px"
										y="0px"
										viewBox="0 0 42 42"
										style="enable-background: new 0 0 42 42"
										xml:space="preserve"
										width="42px"
										height="42px"
									>
										<style type="text/css">
											.st0 {
												fill: #313746;
											}
										</style>
										<path
											class="st0"
											d="M36.34,38.86h-8.18l-8.15-20.3h6.88l5.24,14.54h0.39l5.12-14.54H42V4.4C42,1.97,40.03,0,37.6,0c0,0,0,0,0,0H4.4
								 C1.97,0,0,1.97,0,4.4c0,0,0,0,0,0v17.29c1.92-2.18,4.92-3.42,8.8-3.42c6.82,0,10.9,3.24,10.9,8.66v0.51h-6.36v-0.51
								 c0-2.3-1.09-3.21-4.45-3.21c-4.12,0-5.24,0.97-5.24,5s1.12,5,5.24,5c3.36,0,4.45-0.91,4.45-3.21v-0.51h6.36v0.51
								 c0,5.42-4.09,8.66-10.9,8.66c-3.88,0-6.89-1.25-8.8-3.42v0.02C0,39.21,2.79,42,6.23,42c0,0,0,0,0,0h29.53
								 c3.44,0,6.23-2.79,6.23-6.23V24.76L36.34,38.86z"
										/>
									</svg>