<svg id="Capa_1" data-name="Capa 1" xmlns="http://www.w3.org/2000/svg" viewBox="0 0 979.86 979.86"><defs><style>.cls-1{fill:#313746;}</style></defs><path class="cls-1" d="M857.8,916.78H667l-190.1-473.5H637.31L759.57,782.5h9.19L888.19,443.28H989.93V112.63A102.56,102.56,0,0,0,887.37,10.07H112.63A102.56,102.56,0,0,0,10.07,112.63V516.09c44.7-50.77,114.74-79.87,205.34-79.87,159,0,254.41,75.61,254.41,202.11v12H321.41v-12c0-53.71-25.44-74.91-103.88-74.91C121.42,563.42,95.27,586,95.27,680s26.15,116.6,122.26,116.6c78.44,0,103.88-21.2,103.88-74.91v-12H469.82v12c0,126.5-95.4,202.12-254.41,202.12-90.6,0-160.64-29.1-205.34-79.87v.52A145.45,145.45,0,0,0,155.51,989.93h689A145.45,145.45,0,0,0,989.93,844.49V587.69Z" transform="translate(-10.07 -10.07)"/></svg>