<svg id="visual" viewBox="0 0 900 600" width="900" height="600" xmlns="http://www.w3.org/2000/svg" xmlns:xlink="http://www.w3.org/1999/xlink" version="1.1"><path d="M500 600L494.2 587.5C488.3 575 476.7 550 474.8 525C473 500 481 475 480.8 450C480.7 425 472.3 400 470.3 375C468.3 350 472.7 325 478.8 300C485 275 493 250 497.2 225C501.3 200 501.7 175 495.3 150C489 125 476 100 480.2 75C484.3 50 505.7 25 516.3 12.5L527 0L900 0L900 12.5C900 25 900 50 900 75C900 100 900 125 900 150C900 175 900 200 900 225C900 250 900 275 900 300C900 325 900 350 900 375C900 400 900 425 900 450C900 475 900 500 900 525C900 550 900 575 900 587.5L900 600Z" fill="#9778f4"></path><path d="M516 600L522.2 587.5C528.3 575 540.7 550 538 525C535.3 500 517.7 475 512.2 450C506.7 425 513.3 400 520.8 375C528.3 350 536.7 325 539.2 300C541.7 275 538.3 250 540 225C541.7 200 548.3 175 544.2 150C540 125 525 100 514.3 75C503.7 50 497.3 25 494.2 12.5L491 0L900 0L900 12.5C900 25 900 50 900 75C900 100 900 125 900 150C900 175 900 200 900 225C900 250 900 275 900 300C900 325 900 350 900 375C900 400 900 425 900 450C900 475 900 500 900 525C900 550 900 575 900 587.5L900 600Z" fill="#8e71e7"></path><path d="M537 600L535.5 587.5C534 575 531 550 540.3 525C549.7 500 571.3 475 576.7 450C582 425 571 400 565.8 375C560.7 350 561.3 325 564.7 300C568 275 574 250 571.8 225C569.7 200 559.3 175 558 150C556.7 125 564.3 100 561.7 75C559 50 546 25 539.5 12.5L533 0L900 0L900 12.5C900 25 900 50 900 75C900 100 900 125 900 150C900 175 900 200 900 225C900 250 900 275 900 300C900 325 900 350 900 375C900 400 900 425 900 450C900 475 900 500 900 525C900 550 900 575 900 587.5L900 600Z" fill="#866ad9"></path><path d="M589 600L588.8 587.5C588.7 575 588.3 550 589.2 525C590 500 592 475 598 450C604 425 614 400 619 375C624 350 624 325 617.2 300C610.3 275 596.7 250 589.8 225C583 200 583 175 588.8 150C594.7 125 606.3 100 606.3 75C606.3 50 594.7 25 588.8 12.5L583 0L900 0L900 12.5C900 25 900 50 900 75C900 100 900 125 900 150C900 175 900 200 900 225C900 250 900 275 900 300C900 325 900 350 900 375C900 400 900 425 900 450C900 475 900 500 900 525C900 550 900 575 900 587.5L900 600Z" fill="#7e64cc"></path><path d="M615 600L616.5 587.5C618 575 621 550 621.7 525C622.3 500 620.7 475 624.2 450C627.7 425 636.3 400 642.3 375C648.3 350 651.7 325 646.7 300C641.7 275 628.3 250 628.2 225C628 200 641 175 640.2 150C639.3 125 624.7 100 621.8 75C619 50 628 25 632.5 12.5L637 0L900 0L900 12.5C900 25 900 50 900 75C900 100 900 125 900 150C900 175 900 200 900 225C900 250 900 275 900 300C900 325 900 350 900 375C900 400 900 425 900 450C900 475 900 500 900 525C900 550 900 575 900 587.5L900 600Z" fill="#755dbf"></path><path d="M675 600L668 587.5C661 575 647 550 646.2 525C645.3 500 657.7 475 663.8 450C670 425 670 400 672.2 375C674.3 350 678.7 325 678.2 300C677.7 275 672.3 250 668.7 225C665 200 663 175 665 150C667 125 673 100 669.5 75C666 50 653 25 646.5 12.5L640 0L900 0L900 12.5C900 25 900 50 900 75C900 100 900 125 900 150C900 175 900 200 900 225C900 250 900 275 900 300C900 325 900 350 900 375C900 400 900 425 900 450C900 475 900 500 900 525C900 550 900 575 900 587.5L900 600Z" fill="#6d56b2"></path><path d="M670 600L673.7 587.5C677.3 575 684.7 550 686.2 525C687.7 500 683.3 475 680.8 450C678.3 425 677.7 400 682.5 375C687.3 350 697.7 325 701.5 300C705.3 275 702.7 250 702 225C701.3 200 702.7 175 704.2 150C705.7 125 707.3 100 706.5 75C705.7 50 702.3 25 700.7 12.5L699 0L900 0L900 12.5C900 25 900 50 900 75C900 100 900 125 900 150C900 175 900 200 900 225C900 250 900 275 900 300C900 325 900 350 900 375C900 400 900 425 900 450C900 475 900 500 900 525C900 550 900 575 900 587.5L900 600Z" fill="#6550a6"></path><path d="M737 600L738.5 587.5C740 575 743 550 740 525C737 500 728 475 723.5 450C719 425 719 400 722 375C725 350 731 325 733.5 300C736 275 735 250 734 225C733 200 732 175 729.3 150C726.7 125 722.3 100 718.7 75C715 50 712 25 710.5 12.5L709 0L900 0L900 12.5C900 25 900 50 900 75C900 100 900 125 900 150C900 175 900 200 900 225C900 250 900 275 900 300C900 325 900 350 900 375C900 400 900 425 900 450C900 475 900 500 900 525C900 550 900 575 900 587.5L900 600Z" fill="#5d4999"></path><path d="M744 600L749.7 587.5C755.3 575 766.7 550 768.8 525C771 500 764 475 761.3 450C758.7 425 760.3 400 762 375C763.7 350 765.3 325 765.2 300C765 275 763 250 758.8 225C754.7 200 748.3 175 748.8 150C749.3 125 756.7 100 757 75C757.3 50 750.7 25 747.3 12.5L744 0L900 0L900 12.5C900 25 900 50 900 75C900 100 900 125 900 150C900 175 900 200 900 225C900 250 900 275 900 300C900 325 900 350 900 375C900 400 900 425 900 450C900 475 900 500 900 525C900 550 900 575 900 587.5L900 600Z" fill="#55438d"></path><path d="M809 600L806 587.5C803 575 797 550 796.7 525C796.3 500 801.7 475 803.5 450C805.3 425 803.7 400 802.8 375C802 350 802 325 798.7 300C795.3 275 788.7 250 784.3 225C780 200 778 175 779 150C780 125 784 100 784 75C784 50 780 25 778 12.5L776 0L900 0L900 12.5C900 25 900 50 900 75C900 100 900 125 900 150C900 175 900 200 900 225C900 250 900 275 900 300C900 325 900 350 900 375C900 400 900 425 900 450C900 475 900 500 900 525C900 550 900 575 900 587.5L900 600Z" fill="#4d3c81"></path><path d="M813 600L815.7 587.5C818.3 575 823.7 550 823.7 525C823.7 500 818.3 475 816.3 450C814.3 425 815.7 400 820 375C824.3 350 831.7 325 834 300C836.3 275 833.7 250 831.5 225C829.3 200 827.7 175 825 150C822.3 125 818.7 100 820.5 75C822.3 50 829.7 25 833.3 12.5L837 0L900 0L900 12.5C900 25 900 50 900 75C900 100 900 125 900 150C900 175 900 200 900 225C900 250 900 275 900 300C900 325 900 350 900 375C900 400 900 425 900 450C900 475 900 500 900 525C900 550 900 575 900 587.5L900 600Z" fill="#463676"></path><path d="M859 600L859.8 587.5C860.7 575 862.3 550 861.3 525C860.3 500 856.7 475 854.8 450C853 425 853 400 852 375C851 350 849 325 851 300C853 275 859 250 862.5 225C866 200 867 175 865.2 150C863.3 125 858.7 100 859.2 75C859.7 50 865.3 25 868.2 12.5L871 0L900 0L900 12.5C900 25 900 50 900 75C900 100 900 125 900 150C900 175 900 200 900 225C900 250 900 275 900 300C900 325 900 350 900 375C900 400 900 425 900 450C900 475 900 500 900 525C900 550 900 575 900 587.5L900 600Z" fill="#3e306a"></path></svg>