<svg id="visual" viewBox="0 0 900 600" width="900" height="600" xmlns="http://www.w3.org/2000/svg" xmlns:xlink="http://www.w3.org/1999/xlink" version="1.1"><path d="M306 600L306.2 585.7C306.3 571.3 306.7 542.7 336.8 514.2C367 485.7 427 457.3 447.5 428.8C468 400.3 449 371.7 443 343C437 314.3 444 285.7 449.3 257C454.7 228.3 458.3 199.7 457.7 171.2C457 142.7 452 114.3 454.3 85.8C456.7 57.3 466.3 28.7 471.2 14.3L476 0L900 0L900 14.3C900 28.7 900 57.3 900 85.8C900 114.3 900 142.7 900 171.2C900 199.7 900 228.3 900 257C900 285.7 900 314.3 900 343C900 371.7 900 400.3 900 428.8C900 457.3 900 485.7 900 514.2C900 542.7 900 571.3 900 585.7L900 600Z" fill="#e1e7f3"></path><path d="M584 600L568.5 585.7C553 571.3 522 542.7 521.8 514.2C521.7 485.7 552.3 457.3 559.5 428.8C566.7 400.3 550.3 371.7 541.7 343C533 314.3 532 285.7 535.8 257C539.7 228.3 548.3 199.7 534.3 171.2C520.3 142.7 483.7 114.3 464.3 85.8C445 57.3 443 28.7 442 14.3L441 0L900 0L900 14.3C900 28.7 900 57.3 900 85.8C900 114.3 900 142.7 900 171.2C900 199.7 900 228.3 900 257C900 285.7 900 314.3 900 343C900 371.7 900 400.3 900 428.8C900 457.3 900 485.7 900 514.2C900 542.7 900 571.3 900 585.7L900 600Z" fill="#c7d4f8"></path><path d="M477 600L494.3 585.7C511.7 571.3 546.3 542.7 564.2 514.2C582 485.7 583 457.3 589.5 428.8C596 400.3 608 371.7 613.2 343C618.3 314.3 616.7 285.7 612.7 257C608.7 228.3 602.3 199.7 587.7 171.2C573 142.7 550 114.3 539.3 85.8C528.7 57.3 530.3 28.7 531.2 14.3L532 0L900 0L900 14.3C900 28.7 900 57.3 900 85.8C900 114.3 900 142.7 900 171.2C900 199.7 900 228.3 900 257C900 285.7 900 314.3 900 343C900 371.7 900 400.3 900 428.8C900 457.3 900 485.7 900 514.2C900 542.7 900 571.3 900 585.7L900 600Z" fill="#b1c0fb"></path><path d="M601 600L615.7 585.7C630.3 571.3 659.7 542.7 669.8 514.2C680 485.7 671 457.3 670 428.8C669 400.3 676 371.7 682.8 343C689.7 314.3 696.3 285.7 700.5 257C704.7 228.3 706.3 199.7 689.5 171.2C672.7 142.7 637.3 114.3 619 85.8C600.7 57.3 599.3 28.7 598.7 14.3L598 0L900 0L900 14.3C900 28.7 900 57.3 900 85.8C900 114.3 900 142.7 900 171.2C900 199.7 900 228.3 900 257C900 285.7 900 314.3 900 343C900 371.7 900 400.3 900 428.8C900 457.3 900 485.7 900 514.2C900 542.7 900 571.3 900 585.7L900 600Z" fill="#a2aafc"></path><path d="M702 600L715 585.7C728 571.3 754 542.7 755.8 514.2C757.7 485.7 735.3 457.3 731.3 428.8C727.3 400.3 741.7 371.7 747.8 343C754 314.3 752 285.7 749.2 257C746.3 228.3 742.7 199.7 747.2 171.2C751.7 142.7 764.3 114.3 755.2 85.8C746 57.3 715 28.7 699.5 14.3L684 0L900 0L900 14.3C900 28.7 900 57.3 900 85.8C900 114.3 900 142.7 900 171.2C900 199.7 900 228.3 900 257C900 285.7 900 314.3 900 343C900 371.7 900 400.3 900 428.8C900 457.3 900 485.7 900 514.2C900 542.7 900 571.3 900 585.7L900 600Z" fill="#9992fa"></path><path d="M833 600L826.8 585.7C820.7 571.3 808.3 542.7 800.5 514.2C792.7 485.7 789.3 457.3 795.2 428.8C801 400.3 816 371.7 824.8 343C833.7 314.3 836.3 285.7 838.3 257C840.3 228.3 841.7 199.7 835.7 171.2C829.7 142.7 816.3 114.3 803.2 85.8C790 57.3 777 28.7 770.5 14.3L764 0L900 0L900 14.3C900 28.7 900 57.3 900 85.8C900 114.3 900 142.7 900 171.2C900 199.7 900 228.3 900 257C900 285.7 900 314.3 900 343C900 371.7 900 400.3 900 428.8C900 457.3 900 485.7 900 514.2C900 542.7 900 571.3 900 585.7L900 600Z" fill="#9778f4"></path></svg>