<svg id="visual" viewBox="0 0 900 600" width="900" height="600" xmlns="http://www.w3.org/2000/svg" xmlns:xlink="http://www.w3.org/1999/xlink" version="1.1"><path d="M0 139L100 157L200 157L300 157L400 139L500 163L600 163L700 115L800 145L900 169L900 0L800 0L700 0L600 0L500 0L400 0L300 0L200 0L100 0L0 0Z" fill="#e1e7f3"></path><path d="M0 181L100 199L200 205L300 199L400 175L500 199L600 205L700 151L800 193L900 211L900 167L800 143L700 113L600 161L500 161L400 137L300 155L200 155L100 155L0 137Z" fill="#dae0ec"></path><path d="M0 229L100 253L200 265L300 247L400 223L500 271L600 253L700 205L800 241L900 259L900 209L800 191L700 149L600 203L500 197L400 173L300 197L200 203L100 197L0 179Z" fill="#d4dae6"></path><path d="M0 301L100 325L200 331L300 325L400 301L500 331L600 307L700 271L800 301L900 319L900 257L800 239L700 203L600 251L500 269L400 221L300 245L200 263L100 251L0 227Z" fill="#cdd3df"></path><path d="M0 379L100 421L200 397L300 415L400 373L500 421L600 385L700 361L800 361L900 403L900 317L800 299L700 269L600 305L500 329L400 299L300 323L200 329L100 323L0 299Z" fill="#c7cdd9"></path><path d="M0 409L100 469L200 445L300 457L400 427L500 469L600 433L700 415L800 397L900 439L900 401L800 359L700 359L600 383L500 419L400 371L300 413L200 395L100 419L0 377Z" fill="#c0c7d2"></path><path d="M0 469L100 511L200 487L300 517L400 487L500 505L600 469L700 451L800 457L900 499L900 437L800 395L700 413L600 431L500 467L400 425L300 455L200 443L100 467L0 407Z" fill="#bac0cc"></path><path d="M0 601L100 601L200 601L300 601L400 601L500 601L600 601L700 601L800 601L900 601L900 497L800 455L700 449L600 467L500 503L400 485L300 515L200 485L100 509L0 467Z" fill="#b3bac5"></path></svg>